<?xml version="1.0" encoding="UTF-8" standalone="no"?>
<!-- Created with clker.com Crayon tracing tool http://www.clker.com) -->

<svg
   xmlns:dc="http://purl.org/dc/elements/1.1/"
   xmlns:cc="http://creativecommons.org/ns#"
   xmlns:rdf="http://www.w3.org/1999/02/22-rdf-syntax-ns#"
   xmlns:svg="http://www.w3.org/2000/svg"
   xmlns="http://www.w3.org/2000/svg"
   xmlns:sodipodi="http://sodipodi.sourceforge.net/DTD/sodipodi-0.dtd"
   xmlns:inkscape="http://www.inkscape.org/namespaces/inkscape"
   width="48"
   height="48.03125"
   id="svg10560"
   version="1.1"
   inkscape:version="0.48.2 r9819"
   sodipodi:docname="icon.svg"
   inkscape:export-filename="D:\server\pse1112_private_src\data\icon.png"
   inkscape:export-xdpi="90"
   inkscape:export-ydpi="90">
  <metadata
     id="metadata10567">
    <rdf:RDF>
      <cc:Work
         rdf:about="">
        <dc:format>image/svg+xml</dc:format>
        <dc:type
           rdf:resource="http://purl.org/dc/dcmitype/StillImage" />
        <dc:title></dc:title>
      </cc:Work>
    </rdf:RDF>
  </metadata>
  <defs
     id="defs10565" />
  <sodipodi:namedview
     pagecolor="#ffffff"
     bordercolor="#666666"
     borderopacity="1"
     objecttolerance="10"
     gridtolerance="10"
     guidetolerance="10"
     inkscape:pageopacity="0"
     inkscape:pageshadow="2"
     inkscape:window-width="1617"
     inkscape:window-height="1005"
     id="namedview10563"
     showgrid="false"
     inkscape:zoom="3.0740158"
     inkscape:cx="84.878469"
     inkscape:cy="61.174751"
     inkscape:window-x="294"
     inkscape:window-y="-9"
     inkscape:window-maximized="1"
     inkscape:current-layer="svg10560"
     fit-margin-top="0"
     fit-margin-left="0"
     fit-margin-right="0"
     fit-margin-bottom="0" />
  <rect
     style="fill:#ffffff;fill-opacity:1;stroke:#000000;stroke-width:1.5;stroke-linecap:round;stroke-linejoin:round;stroke-miterlimit:4;stroke-opacity:1;stroke-dasharray:none;stroke-dashoffset:0"
     id="rect2989"
     width="46.510471"
     height="46.510471"
     x="0.74905884"
     y="0.76404727"
     rx="10"
     ry="10" />
  <path
     style="fill:#000000;fill-opacity:1;stroke:#000000;stroke-width:1;stroke-linecap:round;stroke-linejoin:round;stroke-miterlimit:4;stroke-opacity:1;stroke-dasharray:none;stroke-dashoffset:0"
     d="m 24.425793,47.271568 c 0.150516,-0.900675 0.30199,-1.793333 0.434405,-2.764394 0.363299,-2.664187 0.670708,-4.722591 0.928047,-6.160649 0.257338,-1.438056 0.460737,-2.256282 0.612115,-2.468208 l 0.454151,-0.641734 0.543006,-0.355422 c 0.09082,-0.06055 0.254403,-0.101032 0.473896,-0.108601 0.219493,-0.0076 0.500902,0.01383 0.849064,0.05924 0.69632,0.09082 1.652125,0.289627 2.863122,0.592371 2.421978,0.605496 4.295406,1.088001 5.627515,1.451306 l 1.994313,0.543007 0.730589,-0.543007 c 0.242202,-0.18165 0.564089,-0.37584 0.957666,-0.572625 0.393576,-0.196783 0.85699,-0.400195 1.401942,-0.612115 l 1.638891,-0.631861 -0.08885,-2.359608 C 43.815405,31.912116 43.715991,31.18342 43.54948,30.517372 43.382968,29.851325 43.141386,29.245713 42.838636,28.700771 42.535895,28.155821 41.98228,27.35603 41.18,26.311544 40.377719,25.267059 39.332386,23.975541 38.030565,22.43152 36.728744,20.887507 35.55045,19.567671 34.505964,18.462641 c -1.044487,-1.10503 -1.957497,-1.989745 -2.744648,-2.655792 -0.787145,-0.666047 -1.619856,-1.243348 -2.497828,-1.727747 -0.877971,-0.484398 -1.80547,-0.88199 -2.774266,-1.18474 l -2.902616,-0.9083 -2.359608,-2.9026127 C 20.439844,8.1146482 19.767762,7.3859461 19.22281,6.9015478 18.950335,6.6593487 18.714019,6.4796414 18.502093,6.3585419 18.290166,6.2374425 18.110462,6.1808309 17.959087,6.1808309 l 0,-0.00987 -0.908301,0 -0.09873,2.4583357 -0.08885,2.4484634 -1.451307,0.9083 c -0.968789,0.6055 -2.454494,1.6087 -4.452649,3.001343 -1.9981414,1.392642 -4.2691618,3.114676 -6.8122555,5.173365 l -3.39625506,2.754521 0,21.196975 c 0,1.750256 1.40905096,3.159307 3.15930706,3.159307 l 20.5157495,0 z"
     id="path3776"
     inkscape:connector-curvature="0" />
  <text
     xml:space="preserve"
     style="font-size:12.63722801px;font-style:normal;font-weight:normal;line-height:125%;letter-spacing:0px;word-spacing:0px;fill:#000000;fill-opacity:1;stroke:none;font-family:Sans"
     id="text10571"
     sodipodi:linespacing="125%"
     x="-80.030136"
     y="66.36068"><tspan
       id="tspan10573" /></text>
  <path
     sodipodi:type="arc"
     style="fill:#ffffff;fill-opacity:1;stroke:#000000;stroke-width:1.58262563;stroke-miterlimit:4;stroke-opacity:1;stroke-dasharray:none"
     id="path11241"
     sodipodi:cx="279.48288"
     sodipodi:cy="82.872406"
     sodipodi:rx="5.2906222"
     sodipodi:ry="3.2203786"
     d="m 284.7735,82.872406 a 5.2906222,3.2203786 0 1 1 -10.58124,0 5.2906222,3.2203786 0 1 1 10.58124,0 z"
     transform="matrix(0.45195988,0,0,0.45195988,-98.97999,-17.188833)" />
</svg>
